<svg xmlns="http://www.w3.org/2000/svg" width="219.756" height="52.657" viewBox="0 0 219.756 52.657"><g transform="translate(-18.688 -26.287)"><g transform="translate(92.406 44.493)"><path d="M120.392,53.625v.888h-4.63v-.507c0-1.9-1.2-3.171-4.409-3.171-3.234,0-4.5,1.173-4.5,2.886v.095c0,2.379,2.537,2.6,6.025,3.33,3.774.761,7.612,1.871,7.612,7.04v.286c0,3.837-3.076,6.786-9.324,6.786-6.565,0-9.388-2.726-9.388-6.849v-.984h4.631v.6c0,1.84.888,3.236,4.662,3.236,3.584,0,4.63-1.428,4.63-2.823v-.254c0-2.188-2.442-2.632-5.9-3.33-3.933-.824-7.77-1.681-7.77-7.009v-.19c0-4.059,3.045-6.85,9.2-6.85C117.57,46.807,120.392,49.534,120.392,53.625Z" transform="translate(-101.775 -46.807)" fill="#FFFFFF"/><path d="M143.687,64.981c0,4.123-2.062,6.786-6.977,6.786-2.411,0-4.123-.571-4.947-1.332V77.7h-4.789V58.8c0-4.154,2.569-6.913,8.341-6.913,5.8,0,8.373,2.759,8.373,6.913Zm-8.373-8.88c-2.569,0-3.552,1.332-3.552,3.3v4.979c0,1.966.983,3.3,3.552,3.3,2.6,0,3.584-1.333,3.584-3.3V59.4C138.9,57.433,137.914,56.1,135.314,56.1Z" transform="translate(-104.616 -47.379)" fill="#FFFFFF"/><path d="M166.45,58.8v6.121c0,3.774-2.7,6.85-8.373,6.85-5.708,0-8.372-3.076-8.372-6.85V58.8c0-3.773,2.663-6.913,8.372-6.913C163.754,51.883,166.45,55.023,166.45,58.8Zm-8.373-2.7c-2.6,0-3.552,1.332-3.552,3.3v4.852c0,2,.951,3.3,3.552,3.3s3.552-1.3,3.552-3.3V59.4C161.629,57.433,160.678,56.1,158.077,56.1Z" transform="translate(-107.18 -47.379)" fill="#FFFFFF"/><path d="M183.387,51.883V56.1H181.9c-3.362,0-4.314.792-4.314,4.091v11.29h-4.788V60.351c0-6.407,2.41-8.468,9.483-8.468Z" transform="translate(-109.783 -47.379)" fill="#FFFFFF"/><path d="M188.384,63.471v-15.7h4.788v3.964h5.233v3.837h-5.233v7.581c0,3.012.952,3.71,3.362,3.71h2V71.05h-3.108C190.35,71.05,188.384,68.863,188.384,63.471Z" transform="translate(-111.541 -46.916)" fill="#FFFFFF"/><path d="M219.15,51.478H208.97v6.406h8.722V62.2H208.97V70.95h-4.789V47.165H219.15Z" transform="translate(-113.323 -46.847)" fill="#FFFFFF"/><path d="M224.34,52.24h4.788V64.482c0,1.871.952,3.171,3.426,3.171,2.537,0,3.489-1.3,3.489-3.171V52.24h4.788V64.958c0,4.155-2.537,6.882-8.245,6.882-5.74,0-8.246-2.727-8.246-6.882Z" transform="translate(-115.596 -47.42)" fill="#FFFFFF"/><path d="M264.254,71.482h-4.789V59.336c0-1.935-.983-3.235-3.552-3.235s-3.553,1.3-3.553,3.235V71.482h-4.788V58.8c0-4.154,2.568-6.913,8.341-6.913,5.8,0,8.341,2.759,8.341,6.913Z" transform="translate(-118.216 -47.379)" fill="#FFFFFF"/></g><g transform="translate(18.688 26.287)"><path d="M58.953,30.349s-9.9,10.626-5.405,29.74S64.879,80.244,65.4,78.205s-3.881-7.534-2.439-12.822,8.324-.434,14.253,2.38c7.228,3.43,11.814,1.335,8.517-.649s-14.508-6.889-13.5-12.924c1.14-6.794,12.4-8.3,14.244-11.113,1.187-1.809-5.68-1.14-10.71.151-19.682,5.054-14.1-10.219-10.4-14.414C68.412,25.372,63.7,25.048,58.953,30.349Z" transform="translate(-22.487 -26.287)" fill="#d7fc5c"/><circle cx="5.159" cy="5.159" r="5.159" transform="translate(41.193 5.957)" fill="#d7fc5c"/><path d="M66.151,54.259S62.821,68.4,44.43,75.281s-23.053,1.782-21.649.215S31.2,74.535,34.8,70.4s-4.266-7.162-9.9-10.527c-6.87-4.1-7.677-9.08-4.193-7.441s14.565,8.927,18.244,4.037C43.168,50.859,34.74,40.655,35,37.615c.185-2.156,5.966,1.137,9.277,8.524C53.7,67.17,62.431,53.482,63.859,48.07,65.031,43.631,67.918,47.366,66.151,54.259Z" transform="translate(-18.688 -27.491)" fill="#FFFFFF"/><circle cx="5.159" cy="5.159" r="5.159" transform="translate(30.946 17.312)" fill="#FFFFFF"/></g></g></svg>
